<?xml version="1.0" encoding="utf-8"?>
<!-- Svg Vector Icons : http://www.onlinewebfonts.com/icon -->
<!DOCTYPE svg PUBLIC "-//W3C//DTD SVG 1.1//EN" "http://www.w3.org/Graphics/SVG/1.1/DTD/svg11.dtd">
<svg version="1.1" xmlns="http://www.w3.org/2000/svg" xmlns:xlink="http://www.w3.org/1999/xlink" x="0px" y="0px" viewBox="0 0 1000 1000" enable-background="new 0 0 1000 1000" xml:space="preserve">
<metadata> Svg Vector Icons : http://www.onlinewebfonts.com/icon </metadata>
<g><g><path d="M50,768.9c120.9,19.4,444.5,52.1,895.9-49.1c28.6-6.4,51.3,12.1,42,39.9c-26.6,78.9-125.1,218.2-490.1,204.3C161.5,951.3,51.4,865,15.3,808.5C-0.4,783.8,21.1,764.2,50,768.9z"/><path d="M540.1,710.6c75.4,2.7,215.7,2.4,318.3-28.6c28.1-8.5,47.7-42.9,42.3-71.8C877.3,485.9,780.2,174.4,388.1,38.1c-27.7-9.6-38,4.1-24.4,30.1c49.4,94,149.5,321.1,129,586.7C490.5,684.2,510.8,709.5,540.1,710.6z"/><path d="M425.6,358.1c14.6,78.7,33,229.6-14.6,330.7c-12.5,26.5-52.4,44.6-81.7,44.6H187.7c-29.4,0-37.5-17.9-18.8-40.6c55.9-67.8,166.3-209.3,225.3-337.6C406.5,328.6,420.3,329.2,425.6,358.1z"/></g><g></g><g></g><g></g><g></g><g></g><g></g><g></g><g></g><g></g><g></g><g></g><g></g><g></g><g></g><g></g></g>
</svg>